name C:\Users\u0101727\Documents\MyRepositories\upper-imu-dc\OpenSim\subject0\MA\MA_Splines\angle_in_n6_dof6_2.mot
datacolumns 7
datarows 27
range 225.01000000 225.27000000
endheader 
time	clav_prot	clav_elev	scapula_abduction	scapula_elevation	scapula_upward_rot	scapula_winging	
        225.01000000	        -44.34577705	         -7.65248351	        -22.45226073	         -1.85741863	         85.49388449	         -4.74553397	
        225.02000000	        -38.85780873	         -7.65248351	        -22.45226073	         -1.85741863	         85.49388449	         -4.74553397	
        225.03000000	        -33.36984042	         -7.65248351	        -22.45226073	         -1.85741863	         85.49388449	         -4.74553397	
        225.04000000	        -27.88187210	         -7.65248351	        -22.45226073	         -1.85741863	         85.49388449	         -4.74553397	
        225.05000000	        -22.39390379	         -7.65248351	        -22.45226073	         -1.85741863	         85.49388449	         -4.74553397	
        225.06000000	        -16.90593547	         -7.65248351	        -22.45226073	         -1.85741863	         85.49388449	         -4.74553397	
        225.07000000	        -44.34577705	         -2.74924671	        -22.45226073	         -1.85741863	         85.49388449	         -4.74553397	
        225.08000000	        -38.85780873	         -2.74924671	        -22.45226073	         -1.85741863	         85.49388449	         -4.74553397	
        225.09000000	        -33.36984042	         -2.74924671	        -22.45226073	         -1.85741863	         85.49388449	         -4.74553397	
        225.10000000	        -27.88187210	         -2.74924671	        -22.45226073	         -1.85741863	         85.49388449	         -4.74553397	
        225.11000000	        -22.39390379	         -2.74924671	        -22.45226073	         -1.85741863	         85.49388449	         -4.74553397	
        225.12000000	        -16.90593547	         -2.74924671	        -22.45226073	         -1.85741863	         85.49388449	         -4.74553397	
        225.13000000	        -44.34577705	          2.15399008	        -22.45226073	         -1.85741863	         85.49388449	         -4.74553397	
        225.14000000	        -38.85780873	          2.15399008	        -22.45226073	         -1.85741863	         85.49388449	         -4.74553397	
        225.15000000	        -33.36984042	          2.15399008	        -22.45226073	         -1.85741863	         85.49388449	         -4.74553397	
        225.16000000	        -27.88187210	          2.15399008	        -22.45226073	         -1.85741863	         85.49388449	         -4.74553397	
        225.17000000	        -22.39390379	          2.15399008	        -22.45226073	         -1.85741863	         85.49388449	         -4.74553397	
        225.18000000	        -16.90593547	          2.15399008	        -22.45226073	         -1.85741863	         85.49388449	         -4.74553397	
        225.19000000	        -44.34577705	          7.05722688	        -22.45226073	         -1.85741863	         85.49388449	         -4.74553397	
        225.20000000	        -38.85780873	          7.05722688	        -22.45226073	         -1.85741863	         85.49388449	         -4.74553397	
        225.21000000	        -33.36984042	          7.05722688	        -22.45226073	         -1.85741863	         85.49388449	         -4.74553397	
        225.22000000	        -27.88187210	          7.05722688	        -22.45226073	         -1.85741863	         85.49388449	         -4.74553397	
        225.23000000	        -22.39390379	          7.05722688	        -22.45226073	         -1.85741863	         85.49388449	         -4.74553397	
        225.24000000	        -16.90593547	          7.05722688	        -22.45226073	         -1.85741863	         85.49388449	         -4.74553397	
        225.25000000	        -44.34577705	         11.96046367	        -22.45226073	         -1.85741863	         85.49388449	         -4.74553397	
        225.26000000	        -38.85780873	         11.96046367	        -22.45226073	         -1.85741863	         85.49388449	         -4.74553397	
        225.27000000	        -33.36984042	         11.96046367	        -22.45226073	         -1.85741863	         85.49388449	         -4.74553397	
